<svg width="100" height="100" viewBox="0 0 100 100" fill="none" xmlns="http://www.w3.org/2000/svg">
  <path d="M96 0H100V4H96V0Z" fill="#E5E7EB"/>
  <path d="M76 0H80V4H76V0Z" fill="#E5E7EB"/>
  <path d="M56 0H60V4H56V0Z" fill="#E5E7EB"/>
  <path d="M36 0H40V4H36V0Z" fill="#E5E7EB"/>
  <path d="M16 0H20V4H16V0Z" fill="#E5E7EB"/>
  <path d="M96 20H100V24H96V20Z" fill="#E5E7EB"/>
  <path d="M76 20H80V24H76V20Z" fill="#E5E7EB"/>
  <path d="M56 20H60V24H56V20Z" fill="#E5E7EB"/>
  <path d="M36 20H40V24H36V20Z" fill="#E5E7EB"/>
  <path d="M16 20H20V24H16V20Z" fill="#E5E7EB"/>
  <path d="M96 40H100V44H96V40Z" fill="#E5E7EB"/>
  <path d="M76 40H80V44H76V40Z" fill="#E5E7EB"/>
  <path d="M56 40H60V44H56V40Z" fill="#E5E7EB"/>
  <path d="M36 40H40V44H36V40Z" fill="#E5E7EB"/>
  <path d="M16 40H20V44H16V40Z" fill="#E5E7EB"/>
  <path d="M96 60H100V64H96V60Z" fill="#E5E7EB"/>
  <path d="M76 60H80V64H76V60Z" fill="#E5E7EB"/>
  <path d="M56 60H60V64H56V60Z" fill="#E5E7EB"/>
  <path d="M36 60H40V64H36V60Z" fill="#E5E7EB"/>
  <path d="M16 60H20V64H16V60Z" fill="#E5E7EB"/>
  <path d="M96 80H100V84H96V80Z" fill="#E5E7EB"/>
  <path d="M76 80H80V84H76V80Z" fill="#E5E7EB"/>
  <path d="M56 80H60V84H56V80Z" fill="#E5E7EB"/>
  <path d="M36 80H40V84H36V80Z" fill="#E5E7EB"/>
  <path d="M16 80H20V84H16V80Z" fill="#E5E7EB"/>
</svg> 